<?xml version="1.0" standalone="no"?>
<!DOCTYPE svg PUBLIC "-//W3C//DTD SVG 20010904//EN"
 "http://www.w3.org/TR/2001/REC-SVG-20010904/DTD/svg10.dtd">
<svg version="1.0" xmlns="http://www.w3.org/2000/svg"
 width="1280.000000pt" height="1014.000000pt" viewBox="0 0 1280.000000 1014.000000"
 preserveAspectRatio="xMidYMid meet">
<g transform="translate(0.000000,1014.000000) scale(0.100000,-0.100000)"
fill="#000000" stroke="none">
<path d="M8545 10133 c-64 -8 -132 -33 -154 -57 -12 -13 -33 -50 -46 -82 l-24
-59 -733 -6 c-715 -6 -818 -10 -1098 -45 -405 -50 -869 -204 -1425 -474 -292
-141 -368 -195 -581 -412 -73 -75 -161 -151 -220 -193 -215 -151 -301 -265
-412 -545 -86 -215 -143 -398 -362 -1145 -45 -154 -124 -419 -175 -590 -104
-346 -328 -1106 -431 -1465 -37 -129 -72 -241 -78 -249 -27 -36 -956 -910
-1372 -1292 -246 -226 -397 -355 -734 -629 -362 -295 -447 -368 -556 -482 -95
-100 -144 -179 -144 -233 0 -35 29 -79 80 -121 19 -15 57 -48 85 -72 58 -51
130 -89 315 -165 121 -49 582 -263 1200 -556 119 -56 313 -154 430 -217 535
-287 731 -371 1355 -581 1102 -370 1870 -501 2655 -453 291 18 720 65 980 106
953 152 1464 492 2427 1616 362 422 674 834 1021 1346 138 205 148 217 177
216 850 -28 1031 -25 1379 20 229 31 285 46 336 92 135 122 249 604 314 1334
43 475 55 1079 28 1415 -51 642 -151 1135 -273 1354 -64 114 -162 213 -329
331 -203 144 -250 203 -390 480 -67 131 -119 220 -159 270 -136 170 -525 472
-895 695 -418 252 -1008 475 -1496 566 -151 28 -143 25 -130 48 28 54 -1 111
-78 150 -147 73 -329 105 -487 84z"/>
</g>
</svg>
