<?xml version="1.0" encoding="utf-8"?>
<!-- Generator: Adobe Illustrator 16.0.3, SVG Export Plug-In . SVG Version: 6.00 Build 0)  -->
<!DOCTYPE svg PUBLIC "-//W3C//DTD SVG 1.1//EN" "http://www.w3.org/Graphics/SVG/1.1/DTD/svg11.dtd">
<svg version="1.1" id="Calque_2" xmlns="http://www.w3.org/2000/svg" xmlns:xlink="http://www.w3.org/1999/xlink" x="0px" y="0px"
	 width="259px" height="19px" viewBox="0 0 259 19" enable-background="new 0 0 259 19" xml:space="preserve">
<rect x="1.485" y="1.42" fill="#353535" stroke="#595959" stroke-miterlimit="10" width="27.015" height="16.063"/>
<g>
	<g>
		<path fill="#8E8E8E" d="M15.165,9.264c0,0,0.101-0.056-0.038-0.792s-0.43-1.623-1.412-2.065c-0.98-0.445-1.623-0.492-3-0.492
			c-1.378,0-2.242,0.095-3.083,0.656C6.791,7.131,6.5,7.88,6.417,8.37C6.34,8.839,6.321,8.838,6.319,9.481
			c0,0.002-0.006,0.005-0.006,0.009c0,0.013,0,0.028,0,0.04c0,0.015,0,0.028,0,0.042c0,0.002,0.006,0.005,0.006,0.008
			c0.001,0.645,0.018,0.643,0.095,1.112c0.082,0.49,0.375,1.238,1.216,1.799c0.841,0.56,1.707,0.652,3.084,0.652
			c1.378,0,2.021-0.046,3.001-0.49c0.981-0.443,1.273-1.347,1.412-2.082c0.139-0.737,0.038-0.986,0.038-0.986h-4.336V9.264H15.165
			L15.165,9.264z"/>
		<path fill="#8E8E8E" d="M23.339,7.652c0-1.483-1.448-1.614-1.891-1.614c-0.443,0-5.889,0-5.889,0v3.226h6.332
			C21.891,9.264,23.339,9.135,23.339,7.652z"/>
		<path fill="#8E8E8E" d="M21.51,9.586c-0.45,0-5.951,0-5.951,0v3.44h6.399c0,0,1.463-0.109,1.463-1.719
			C23.421,9.697,21.958,9.586,21.51,9.586z"/>
	</g>
</g>
<g>
	<rect x="31.148" y="1.42" fill="#353535" stroke="#595959" stroke-miterlimit="10" width="26.601" height="16.063"/>
	<rect x="31.45" y="3.082" fill="#757575" width="25.979" height="10.395"/>
	<rect x="31.45" y="1.727" fill="#2C2C2C" width="25.979" height="4.406"/>
	<rect x="31.45" y="12.681" fill="#424242" width="25.979" height="4.503"/>
</g>
<g>
	<g>
		<path fill="#202020" d="M36.517,7.07h2.216l0.128,2.944l1.65-2.944h1.297l-2.646,4.579h-1.302c0,0-0.276-3.085-0.406-3.819
			c-0.116-0.65-0.937-0.534-0.937-0.534V7.07z"/>
		<polygon fill="#202020" points="42.535,7.07 43.813,7.07 42.275,11.649 41.053,11.649 		"/>
		<path fill="#202020" d="M47.572,7.652c0,0-0.357-0.63-1.619-0.63c-1.391,0-1.838,0.732-1.838,1.509
			c0,0.777,0.948,1.19,1.373,1.451c0.574,0.355,0.284,0.855-0.234,0.855c-0.518,0-0.956-0.111-1.182-0.289
			c-0.226-0.179-0.226-0.179-0.226-0.179l-0.621,0.857c0,0,0.606,0.502,1.948,0.502c1.342,0,1.756-0.715,1.86-1.311
			c0.098-0.558-0.308-0.975-0.76-1.261c-0.375-0.237-0.902-0.44-0.917-0.804c-0.021-0.485,0.625-0.583,1.014-0.388
			c0.388,0.194,0.566,0.367,0.566,0.367L47.572,7.652z"/>
		<path fill="#202020" d="M51.191,7.07h-1.612l-2.557,4.579h1.402l0.357-0.712h1.553v0.712h1.262L51.191,7.07z M50.189,10.129
			h-0.971l0.971-2.12V10.129z"/>
	</g>
</g>
<g>
	<g>
		<path fill="#767676" d="M93.463,17.374c-0.228,0-0.456-0.002-0.685,0.002c-0.142,0.002-0.194-0.054-0.211-0.199
			c-0.03-0.253-0.09-0.503-0.14-0.752c-0.016-0.079-0.079-0.111-0.152-0.111c-0.707-0.004-1.416-0.004-2.123-0.004
			c-0.11,0-0.15,0.075-0.183,0.171c-0.085,0.25-0.188,0.491-0.266,0.744c-0.037,0.119-0.103,0.151-0.215,0.151
			c-0.54-0.002-1.081-0.002-1.621,0c-0.144,0.002-0.164-0.038-0.105-0.175c0.608-1.432,1.208-2.867,1.811-4.299
			c0.282-0.668,0.574-1.329,0.846-2.001c0.178-0.442,0.504-0.642,0.963-0.647c0.435-0.007,0.868,0.002,1.301-0.007
			c0.192-0.006,0.208,0.143,0.232,0.256c0.168,0.8,0.305,1.606,0.49,2.405c0.165,0.707,0.291,1.424,0.466,2.132
			c0.145,0.583,0.234,1.18,0.35,1.769c0.027,0.14,0.048,0.283,0.099,0.416c0.058,0.149-0.022,0.151-0.125,0.149
			C93.952,17.374,93.708,17.374,93.463,17.374z M91.523,12.285c-0.077,0.055-0.047,0.132-0.072,0.193
			c-0.273,0.723-0.534,1.451-0.813,2.174c-0.07,0.181-0.016,0.209,0.147,0.208c0.326-0.006,0.654,0.001,0.98-0.002
			c0.104-0.004,0.231,0.044,0.308-0.032c0.079-0.079-0.034-0.166-0.05-0.252c-0.108-0.598-0.206-1.198-0.352-1.787
			C91.631,12.626,91.679,12.419,91.523,12.285z"/>
		<path fill="#767676" d="M86.103,10.154c0.669-0.034,1.242,0.008,1.804,0.195c0.143,0.049,0.183,0.098,0.157,0.259
			c-0.062,0.401-0.116,0.803-0.198,1.2c-0.024,0.121-0.062,0.154-0.181,0.099c-0.576-0.271-1.185-0.329-1.812-0.244
			c-0.183,0.026-0.35,0.107-0.486,0.232c-0.225,0.207-0.174,0.562,0.108,0.763c0.311,0.219,0.649,0.388,0.987,0.559
			c0.452,0.232,0.873,0.51,1.125,0.965c0.204,0.367,0.288,0.755,0.202,1.194c-0.239,1.226-1.071,1.757-2.197,2.01
			c-0.598,0.134-1.191,0.122-1.784,0.058c-0.339-0.039-0.681-0.109-1.01-0.219c-0.287-0.098-0.311-0.147-0.242-0.496
			c0.068-0.346,0.135-0.695,0.186-1.044c0.019-0.144,0.065-0.167,0.188-0.109c0.315,0.146,0.635,0.284,0.98,0.34
			c0.573,0.094,1.144,0.186,1.688-0.159c0.326-0.207,0.321-0.682,0.008-0.923c-0.291-0.224-0.631-0.356-0.947-0.535
			c-0.394-0.218-0.776-0.456-1.042-0.826c-0.483-0.667-0.439-1.365-0.039-2.042c0.351-0.597,0.916-0.931,1.563-1.132
			C85.496,10.195,85.835,10.128,86.103,10.154z"/>
		<path fill="#767676" d="M75.787,13.637c0.166,0.445,0.29,0.899,0.357,1.403c0.142-0.203,0.185-0.41,0.258-0.604
			c0.505-1.337,1.006-2.672,1.502-4.011c0.043-0.116,0.094-0.176,0.225-0.174c0.549,0.004,1.095,0.002,1.643-0.002
			c0.134,0,0.155,0.051,0.106,0.168c-0.274,0.662-0.545,1.326-0.815,1.988c-0.57,1.396-1.14,2.793-1.708,4.191
			c-0.089,0.215-0.184,0.43-0.276,0.643c-0.039,0.094-0.104,0.138-0.21,0.138c-0.563-0.004-1.125-0.004-1.688-0.002
			c-0.087,0-0.128-0.021-0.154-0.118c-0.174-0.67-0.358-1.334-0.541-1.999c-0.2-0.744-0.405-1.488-0.601-2.233
			c-0.155-0.596-0.301-1.19-0.453-1.786c0.079,0.028,0.166,0.044,0.231,0.09c0.556,0.383,1.067,0.813,1.482,1.354
			C75.378,12.988,75.547,13.336,75.787,13.637z"/>
		<path fill="#767676" d="M65.606,6.915c0.227-0.445,0.429-0.842,0.63-1.239c0.54-1.071,1.079-2.142,1.614-3.215
			c0.068-0.137,0.148-0.21,0.313-0.203c0.297,0.015,0.594,0.005,0.89,0.003c0.125,0,0.165,0.025,0.095,0.157
			c-1.052,1.967-2.102,3.937-3.145,5.909c-0.08,0.15-0.167,0.208-0.333,0.2c-0.273-0.013-0.549-0.006-0.821-0.002
			c-0.103,0.001-0.152-0.019-0.182-0.14c-0.147-0.606-0.278-1.214-0.407-1.825c-0.112-0.543-0.247-1.08-0.367-1.622
			c-0.108-0.481-0.195-0.968-0.321-1.445c-0.065-0.246-0.091-0.502-0.175-0.744c-0.091-0.262-0.057-0.293,0.211-0.359
			c0.295-0.073,0.596-0.089,0.89-0.149c0.123-0.024,0.159,0.012,0.183,0.128c0.128,0.662,0.271,1.321,0.399,1.982
			c0.102,0.531,0.168,1.068,0.294,1.592C65.45,6.248,65.445,6.571,65.606,6.915z"/>
		<path fill="#767676" d="M90.026,8.522c-0.015,0-0.029,0-0.045,0c-0.404,0-0.404,0-0.424-0.394
			c-0.002-0.05,0.024-0.116-0.039-0.141c-0.063-0.023-0.091,0.042-0.129,0.075c-0.392,0.371-0.849,0.559-1.396,0.541
			c-0.522-0.018-1.059-0.406-1.166-0.919c-0.25-1.194,0.003-2.266,0.919-3.104c0.507-0.464,1.149-0.585,1.83-0.436
			c0.117,0.025,0.235,0.043,0.353,0.072c0.176,0.044,0.159-0.112,0.177-0.22c0.09-0.564,0.182-1.129,0.265-1.694
			c0.021-0.133,0.081-0.17,0.21-0.182c0.24-0.022,0.48-0.06,0.713-0.113c0.154-0.034,0.205,0.011,0.185,0.153
			c-0.052,0.365-0.109,0.73-0.167,1.095c-0.054,0.365-0.11,0.729-0.167,1.094c-0.062,0.394-0.125,0.788-0.188,1.182
			c-0.055,0.357-0.109,0.714-0.164,1.071c-0.052,0.351-0.087,0.704-0.16,1.051c-0.045,0.214-0.049,0.432-0.098,0.647
			c-0.039,0.172-0.085,0.241-0.257,0.223C90.195,8.516,90.11,8.522,90.026,8.522z M87.855,6.662
			c0.002,0.785,0.433,1.133,1.043,0.892c0.447-0.176,0.789-0.438,0.815-1.015c0.019-0.373,0.065-0.763,0.181-1.132
			c0.026-0.086,0.065-0.204-0.04-0.272c-0.283-0.183-1.05-0.208-1.341,0.038C88.013,5.595,87.918,6.161,87.855,6.662z"/>
		<path fill="#767676" d="M80.48,17.374c-0.258,0-0.516-0.004-0.775,0.004c-0.119,0-0.17-0.042-0.151-0.161
			c0.056-0.356,0.108-0.715,0.164-1.07c0.057-0.371,0.109-0.744,0.172-1.113c0.061-0.363,0.136-0.724,0.195-1.086
			c0.076-0.453,0.138-0.907,0.215-1.359c0.066-0.386,0.112-0.773,0.19-1.156c0.067-0.323,0.094-0.654,0.151-0.981
			c0.028-0.157,0.076-0.231,0.239-0.231c0.487,0.004,0.973,0.004,1.458,0c0.144-0.002,0.194,0.056,0.172,0.192
			c-0.061,0.393-0.105,0.787-0.195,1.175c-0.036,0.162-0.045,0.328-0.076,0.491c-0.097,0.531-0.18,1.066-0.264,1.602
			c-0.054,0.347-0.099,0.698-0.153,1.049c-0.057,0.347-0.123,0.694-0.18,1.044c-0.058,0.347-0.124,0.697-0.166,1.049
			c-0.02,0.155-0.084,0.305-0.07,0.47c0.007,0.096-0.086,0.084-0.153,0.086C80.998,17.376,80.74,17.374,80.48,17.374z"/>
		<path fill="#767676" d="M84.946,6.553c-0.388,0-0.777,0.015-1.163-0.005c-0.223-0.012-0.256,0.076-0.261,0.272
			c-0.014,0.477,0.278,0.794,0.555,0.872c0.416,0.116,0.823,0.053,1.222-0.085c0.229-0.079,0.452-0.174,0.651-0.313
			c0.125-0.087,0.159-0.025,0.161,0.094c0.002,0.015,0,0.031,0.002,0.045c0.026,0.698-0.076,0.804-0.874,1.033
			c-0.429,0.124-0.866,0.179-1.304,0.128c-0.823-0.096-1.476-0.591-1.508-1.57c-0.022-0.677,0.103-1.307,0.465-1.884
			c0.446-0.713,1.104-1.076,1.925-1.09c0.674-0.011,1.239,0.236,1.485,0.93c0.173,0.49,0.137,0.996,0.042,1.498
			c-0.023,0.109-0.121,0.074-0.19,0.074C85.752,6.555,85.35,6.553,84.946,6.553z M85.387,5.61c-0.025-0.299-0.108-0.584-0.397-0.736
			c-0.308-0.163-0.736,0.001-0.928,0.205c-0.159,0.172-0.255,0.369-0.352,0.575c-0.079,0.167-0.042,0.218,0.133,0.217
			c0.431-0.003,0.865-0.011,1.296,0.003C85.339,5.88,85.426,5.82,85.387,5.61z"/>
		<path fill="#767676" d="M70.609,6.553c-0.402,0-0.806,0.004-1.209-0.002c-0.145-0.003-0.202,0.042-0.2,0.194
			c0.005,0.781,0.512,1.066,1.199,0.999c0.451-0.043,0.863-0.208,1.245-0.449c0.14-0.087,0.17-0.03,0.162,0.104
			c-0.004,0.077-0.001,0.152-0.001,0.229c0,0.486-0.019,0.51-0.47,0.696c-0.548,0.224-1.118,0.31-1.709,0.276
			c-0.811-0.046-1.487-0.715-1.52-1.526c-0.029-0.727,0.127-1.407,0.538-2.02c0.598-0.89,1.801-1.26,2.697-0.824
			c0.433,0.21,0.642,0.577,0.738,1.029c0.078,0.363,0.026,0.724-0.002,1.086C72.065,6.483,72,6.56,71.841,6.557
			C71.432,6.547,71.02,6.553,70.609,6.553z M70.202,5.87c0.235,0,0.471,0,0.707,0c0.069,0,0.129,0.002,0.151-0.094
			c0.068-0.301-0.072-0.711-0.301-0.857c-0.27-0.173-0.643-0.127-0.923,0.088c-0.255,0.196-0.364,0.477-0.478,0.755
			c-0.046,0.109,0.046,0.106,0.114,0.107C69.715,5.871,69.96,5.87,70.202,5.87z"/>
		<path fill="#767676" d="M78.34,8.522c-0.069,0-0.138,0-0.207,0c-0.317,0-0.362-0.074-0.289-0.395
			c0.125-0.543,0.186-1.098,0.265-1.648c0.054-0.372,0.117-0.742,0.196-1.109c0.055-0.253,0.021-0.316-0.235-0.318
			c-0.068,0-0.137,0-0.204,0c-0.145,0-0.201-0.063-0.137-0.201c0.083-0.176,0.031-0.373,0.095-0.557
			c0.038-0.109,0.076-0.153,0.183-0.146c0.037,0.002,0.074,0,0.113,0c0.365,0,0.34-0.005,0.407-0.357
			c0.069-0.357,0.097-0.729,0.302-1.056c0.196-0.315,0.479-0.511,0.822-0.588c0.261-0.06,0.53-0.126,0.809-0.102
			c0.271,0.025,0.33,0.072,0.33,0.339c0,0.152-0.003,0.304,0.001,0.456c0.003,0.138-0.057,0.174-0.186,0.139
			c-0.155-0.043-0.308-0.041-0.47,0c-0.398,0.102-0.464,0.417-0.499,0.748C79.593,4.149,79.6,4.149,80.03,4.149
			c0.053,0,0.106,0.004,0.159,0c0.16-0.016,0.239,0.018,0.202,0.212c-0.032,0.169-0.012,0.349-0.004,0.523
			c0.005,0.131-0.049,0.173-0.175,0.169c-0.204-0.007-0.41,0.002-0.616-0.002c-0.12-0.003-0.163,0.037-0.182,0.166
			c-0.097,0.655-0.216,1.308-0.317,1.961c-0.058,0.372-0.105,0.746-0.146,1.121c-0.017,0.161-0.085,0.232-0.248,0.225
			C78.583,8.519,78.461,8.522,78.34,8.522z"/>
		<path fill="#767676" d="M93.806,5.523c0.224-0.159,0.424-0.29,0.674-0.353c0.578-0.146,1.099,0.082,1.254,0.648
			c0.269,0.974-0.148,2.382-1.338,2.662c-0.602,0.141-1.202,0.066-1.79-0.108c-0.12-0.037-0.098-0.151-0.082-0.253
			c0.109-0.699,0.214-1.399,0.322-2.099c0.117-0.744,0.236-1.488,0.352-2.231c0.01-0.063,0.039-0.087,0.1-0.103
			c0.218-0.052,0.446-0.05,0.667-0.113c0.13-0.038,0.094,0.067,0.086,0.157C93.988,4.32,93.842,4.898,93.806,5.523z M94.437,5.87
			c-0.398-0.001-0.809,0.376-0.829,0.761c-0.001,0.046-0.004,0.093-0.016,0.134c-0.102,0.304-0.083,0.626-0.155,0.934
			c-0.017,0.066,0.029,0.098,0.078,0.123c0.296,0.148,0.886,0,1.108-0.254c0.261-0.3,0.309-0.674,0.342-1.037
			C95.001,6.148,94.747,5.872,94.437,5.87z"/>
		<path fill="#767676" d="M73.998,4.939c0.239-0.193,0.385-0.4,0.593-0.542c0.248-0.171,0.514-0.283,0.813-0.331
			c0.134-0.021,0.165,0.033,0.166,0.142c0.003,0.258,0.003,0.517,0.011,0.775c0.004,0.105-0.035,0.139-0.139,0.158
			C75,5.222,74.596,5.381,74.227,5.659c-0.29,0.218-0.396,0.483-0.432,0.826c-0.039,0.38-0.125,0.755-0.185,1.134
			c-0.036,0.225-0.063,0.449-0.082,0.674c-0.012,0.154-0.062,0.239-0.234,0.233c-0.25-0.009-0.502-0.004-0.753-0.003
			c-0.103,0.002-0.155-0.029-0.135-0.148c0.072-0.431,0.139-0.861,0.204-1.292c0.056-0.364,0.098-0.731,0.155-1.094
			c0.058-0.38,0.126-0.757,0.188-1.136c0.031-0.178,0.064-0.356,0.08-0.536c0.01-0.112,0.041-0.169,0.161-0.167
			c0.22,0.004,0.44,0.004,0.661,0c0.11-0.002,0.146,0.048,0.144,0.153C73.995,4.496,73.998,4.692,73.998,4.939z"/>
		<path fill="#767676" d="M97.614,7.447c0.185-0.38,0.351-0.714,0.511-1.053c0.164-0.341,0.324-0.683,0.482-1.026
			c0.059-0.13,0.135-0.202,0.293-0.184c0.142,0.017,0.288,0.007,0.433,0.002c0.144-0.004,0.199,0.023,0.116,0.179
			c-0.475,0.905-0.938,1.814-1.409,2.72c-0.184,0.348-0.354,0.702-0.573,1.031c-0.339,0.511-0.82,0.685-1.409,0.634
			c-0.044-0.004-0.105-0.005-0.107-0.06c-0.005-0.189-0.025-0.383,0.006-0.568c0.019-0.112,0.159-0.057,0.24-0.051
			c0.354,0.029,0.589-0.12,0.75-0.43c0.078-0.148,0.027-0.288-0.002-0.418c-0.156-0.734-0.32-1.467-0.468-2.203
			c-0.042-0.213-0.104-0.423-0.136-0.639c-0.011-0.071-0.005-0.127,0.078-0.132c0.219-0.014,0.431-0.084,0.653-0.07
			c0.102,0.007,0.159,0.04,0.174,0.139c0.069,0.446,0.13,0.894,0.205,1.338C97.491,6.905,97.551,7.149,97.614,7.447z"/>
		<path fill="#767676" d="M81.555,4.148c0.114,0,0.229,0.008,0.343-0.001c0.208-0.019,0.218,0.093,0.188,0.255
			c-0.072,0.398-0.136,0.8-0.199,1.2c-0.058,0.357-0.111,0.714-0.166,1.071c-0.057,0.372-0.12,0.743-0.166,1.116
			c-0.024,0.201-0.105,0.393-0.092,0.603c0.004,0.081-0.068,0.13-0.158,0.13c-0.274,0-0.548-0.001-0.822,0
			c-0.13,0.002-0.143-0.06-0.124-0.174c0.092-0.595,0.172-1.19,0.28-1.784c0.093-0.502,0.125-1.017,0.217-1.52
			c0.047-0.259,0.082-0.521,0.127-0.779c0.019-0.102,0.079-0.117,0.162-0.117C81.282,4.149,81.419,4.149,81.555,4.148
			C81.555,4.149,81.555,4.149,81.555,4.148z"/>
		<path fill="#767676" d="M76.087,8.522c-0.045,0-0.091,0-0.137,0c-0.449,0-0.45-0.007-0.361-0.459
			c0.083-0.413,0.131-0.832,0.2-1.247c0.058-0.347,0.1-0.699,0.171-1.046c0.072-0.353,0.129-0.71,0.163-1.07
			c0.015-0.151,0.077-0.292,0.072-0.446C76.19,4.162,76.267,4.15,76.339,4.15c0.274,0,0.548,0,0.822,0
			c0.193-0.001,0.153,0.137,0.13,0.241c-0.116,0.56-0.172,1.128-0.271,1.689c-0.062,0.362-0.105,0.727-0.18,1.089
			c-0.07,0.344-0.108,0.699-0.156,1.049c-0.04,0.292-0.029,0.303-0.323,0.305C76.27,8.522,76.178,8.522,76.087,8.522z"/>
		<g>
			<path fill="#767676" d="M75.787,13.637c-0.24-0.301-0.409-0.648-0.642-0.953c-0.416-0.541-0.927-0.972-1.482-1.354
				c-0.066-0.046-0.153-0.062-0.229-0.09c-0.096-0.237-0.342-0.263-0.53-0.354c-0.449-0.217-0.928-0.363-1.401-0.521
				c0.032-0.125,0.12-0.098,0.188-0.098c0.934-0.002,1.868-0.006,2.802,0.002c0.531,0.005,0.75,0.219,0.883,0.872
				c0.158,0.778,0.298,1.56,0.449,2.338C75.836,13.541,75.852,13.596,75.787,13.637z"/>
		</g>
		<path fill="#767676" d="M81.891,2.179c0.339,0.006,0.553,0.223,0.543,0.552c-0.011,0.39-0.369,0.71-0.79,0.701
			c-0.305-0.007-0.531-0.252-0.525-0.573C81.126,2.465,81.46,2.169,81.891,2.179z"/>
		<path fill="#767676" d="M77.088,2.18c0.33,0,0.55,0.209,0.55,0.522c0,0.394-0.358,0.731-0.773,0.729
			c-0.305,0-0.542-0.237-0.542-0.538C76.325,2.463,76.629,2.18,77.088,2.18z"/>
	</g>
</g>
<g>
	<rect x="114.985" y="1.42" fill="#353535" stroke="#595959" stroke-miterlimit="10" width="27.015" height="16.063"/>
	<path fill="#444444" d="M128.493,4.77c-1.221-1.244-2.919-2.014-4.798-2.014c-3.714,0-6.723,3.009-6.723,6.722
		c0,3.714,3.009,6.723,6.723,6.723c1.879,0,3.577-0.772,4.798-2.015c-1.19-1.214-1.925-2.874-1.925-4.708
		C126.568,7.646,127.303,5.983,128.493,4.77z"/>
	<path fill="#5C5C5C" d="M133.291,2.756c-1.88,0-3.577,0.77-4.798,2.014c1.19,1.213,1.925,2.875,1.925,4.708
		c0,1.834-0.734,3.495-1.925,4.708c1.221,1.242,2.918,2.015,4.798,2.015c3.713,0,6.723-3.009,6.723-6.723
		C140.014,5.765,137.004,2.756,133.291,2.756z"/>
	<path fill="#4F4F4F" d="M128.493,4.77c-1.19,1.213-1.925,2.875-1.925,4.708c0,1.834,0.734,3.495,1.925,4.708
		c1.19-1.214,1.925-2.874,1.925-4.708C130.418,7.646,129.684,5.983,128.493,4.77z"/>
	<g>
		<g>
			<path fill="#939393" d="M119.736,9.749c0.096-0.291,0.189-0.582,0.285-0.873c0.097-0.3,0.196-0.601,0.292-0.903
				c0.022-0.072,0.059-0.105,0.14-0.104c0.293,0.004,0.587,0.002,0.879,0.002c0.08-0.002,0.103,0.03,0.089,0.105
				c-0.091,0.55-0.183,1.101-0.272,1.653c-0.077,0.481-0.152,0.962-0.226,1.442c-0.011,0.068-0.04,0.095-0.105,0.092
				c-0.179,0-0.354-0.002-0.533,0.003c-0.071,0-0.089-0.032-0.077-0.097c0.038-0.25,0.077-0.503,0.117-0.757
				c0.043-0.278,0.087-0.558,0.13-0.838c0.026-0.166,0.054-0.334,0.08-0.501c-0.009-0.002-0.017-0.004-0.026-0.006
				c-0.051,0.145-0.104,0.291-0.153,0.436c-0.193,0.56-0.383,1.12-0.58,1.679c-0.012,0.035-0.062,0.075-0.097,0.078
				c-0.111,0.012-0.226,0.004-0.337,0.004c-0.062,0.003-0.085-0.023-0.086-0.084c-0.005-0.197-0.013-0.396-0.017-0.594
				c-0.011-0.464-0.02-0.926-0.028-1.39c-0.003-0.042-0.008-0.085-0.028-0.128c-0.026,0.156-0.053,0.312-0.079,0.47
				c-0.064,0.403-0.129,0.805-0.196,1.209c-0.021,0.142-0.048,0.281-0.067,0.423c-0.01,0.07-0.044,0.098-0.116,0.097
				c-0.183-0.005-0.366,0-0.555,0c0-0.047-0.003-0.078,0.002-0.107c0.063-0.395,0.129-0.793,0.191-1.189
				c0.067-0.409,0.134-0.82,0.2-1.23c0.036-0.228,0.07-0.457,0.113-0.685c0.006-0.033,0.06-0.08,0.091-0.08
				c0.28-0.006,0.56-0.003,0.84-0.003c0.076,0,0.087,0.043,0.088,0.107c0.005,0.371,0.013,0.742,0.018,1.115
				c0.002,0.218,0,0.436,0,0.653C119.721,9.747,119.729,9.749,119.736,9.749z"/>
			<path fill="#939393" d="M137.67,8.752c0.018-0.104,0.037-0.195,0.051-0.288c0.027-0.165,0.054-0.33,0.076-0.495
				c0.007-0.066,0.032-0.098,0.101-0.098c0.176,0,0.35,0,0.521,0c0.064,0,0.092,0.019,0.078,0.092
				c-0.098,0.612-0.194,1.224-0.29,1.834c-0.063,0.41-0.13,0.822-0.188,1.232c-0.016,0.095-0.043,0.146-0.153,0.137
				c-0.139-0.01-0.279-0.007-0.42,0c-0.097,0.005-0.131-0.031-0.111-0.124c0.004-0.02-0.001-0.039-0.003-0.061
				c-0.107,0.061-0.205,0.135-0.313,0.172c-0.451,0.156-0.88-0.058-1.023-0.549c-0.206-0.703-0.07-1.351,0.432-1.897
				c0.318-0.345,0.86-0.382,1.19,0.004C137.63,8.723,137.644,8.731,137.67,8.752z M136.653,9.966
				c0.004,0.079-0.001,0.157,0.014,0.235c0.021,0.116,0.06,0.229,0.184,0.277c0.126,0.049,0.255,0.04,0.354-0.056
				c0.08-0.075,0.162-0.167,0.195-0.267c0.056-0.167,0.083-0.343,0.103-0.518c0.012-0.085-0.011-0.178-0.034-0.263
				c-0.033-0.125-0.11-0.221-0.246-0.246c-0.157-0.029-0.28,0.041-0.374,0.162C136.697,9.491,136.652,9.722,136.653,9.966z"/>
			<path fill="#939393" d="M122.559,10.928c-0.172,0.17-0.354,0.255-0.57,0.273c-0.378,0.037-0.651-0.13-0.729-0.511
				c-0.077-0.385-0.002-0.764,0.343-1.026c0.208-0.159,0.452-0.217,0.709-0.23c0.104-0.005,0.212-0.002,0.316,0.005
				c0.055,0.004,0.079-0.012,0.089-0.068c0.031-0.163-0.034-0.262-0.193-0.286c-0.265-0.036-0.523-0.011-0.779,0.061
				c-0.038,0.011-0.079,0.021-0.119,0.03c-0.008,0.002-0.02-0.002-0.04-0.008c0.005-0.048,0.008-0.098,0.014-0.146
				c0.019-0.128,0.035-0.257,0.063-0.383c0.011-0.037,0.051-0.083,0.087-0.094c0.345-0.106,0.692-0.169,1.057-0.1
				c0.341,0.067,0.593,0.323,0.589,0.671c-0.002,0.281-0.042,0.562-0.077,0.841c-0.048,0.373-0.112,0.743-0.163,1.112
				c-0.011,0.079-0.042,0.097-0.111,0.094c-0.13-0.002-0.259-0.002-0.389,0c-0.071,0.003-0.111-0.013-0.096-0.098
				C122.564,11.031,122.559,10.994,122.559,10.928z M122.458,9.972c-0.002-0.01-0.004-0.018-0.007-0.027
				c-0.129,0.041-0.264,0.064-0.381,0.126c-0.152,0.078-0.196,0.312-0.105,0.448c0.076,0.113,0.261,0.127,0.405,0.021
				c0.173-0.13,0.227-0.316,0.239-0.519c0.001-0.016-0.029-0.043-0.051-0.048C122.528,9.965,122.492,9.972,122.458,9.972z"/>
			<path fill="#939393" d="M133.675,10.968c-0.133,0.067-0.263,0.166-0.408,0.204c-0.368,0.099-0.698,0.033-0.85-0.351
				c-0.188-0.479-0.021-1.125,0.624-1.32c0.223-0.068,0.451-0.083,0.677-0.064c0.099,0.008,0.12-0.024,0.12-0.11
				c-0.002-0.156-0.048-0.218-0.202-0.24c-0.271-0.038-0.535-0.011-0.797,0.065c-0.148,0.045-0.152,0.04-0.126-0.111
				c0.02-0.124,0.038-0.249,0.054-0.374c0.011-0.071,0.043-0.115,0.115-0.135c0.342-0.091,0.683-0.157,1.04-0.087
				c0.339,0.065,0.599,0.335,0.592,0.683c-0.009,0.279-0.048,0.562-0.083,0.842c-0.049,0.368-0.111,0.735-0.158,1.1
				c-0.012,0.081-0.042,0.098-0.111,0.097c-0.118-0.003-0.238-0.003-0.357-0.003c-0.133,0-0.141-0.007-0.133-0.137
				C133.672,11,133.675,10.974,133.675,10.968z M133.578,9.97c-0.027,0-0.055-0.004-0.081,0.001
				c-0.159,0.024-0.321,0.045-0.415,0.203c-0.063,0.108-0.053,0.298,0.021,0.376c0.076,0.076,0.243,0.081,0.364,0.001
				c0.153-0.1,0.218-0.255,0.25-0.425C133.747,9.973,133.738,9.968,133.578,9.97z"/>
			<path fill="#939393" d="M128.553,10.415c-0.021,0.141-0.038,0.266-0.059,0.389c-0.002,0.014-0.012,0.026-0.011,0.039
				c0.02,0.244-0.129,0.311-0.332,0.337c-0.299,0.042-0.598,0.06-0.891-0.029c-0.341-0.107-0.563-0.34-0.64-0.685
				c-0.13-0.583-0.058-1.139,0.308-1.631c0.283-0.383,0.773-0.524,1.214-0.354c0.327,0.124,0.491,0.384,0.539,0.714
				c0.035,0.26,0.006,0.523-0.056,0.781c-0.017,0.074-0.051,0.091-0.12,0.091c-0.377-0.001-0.757,0.004-1.134-0.001
				c-0.105-0.003-0.123,0.039-0.113,0.126c0.021,0.153,0.094,0.269,0.24,0.33c0.224,0.091,0.454,0.071,0.683,0.016
				C128.299,10.51,128.412,10.463,128.553,10.415z M127.335,9.498c0.219,0,0.429,0.001,0.639-0.001c0.02,0,0.052-0.022,0.059-0.041
				c0.064-0.183-0.085-0.396-0.279-0.4C127.533,9.05,127.348,9.24,127.335,9.498z"/>
			<path fill="#939393" d="M132.233,10.356c-0.015,0.082-0.024,0.136-0.033,0.192c-0.026,0.168-0.051,0.338-0.081,0.503
				c-0.005,0.03-0.031,0.075-0.057,0.082c-0.455,0.133-0.902,0.158-1.303-0.156c-0.239-0.188-0.368-0.448-0.42-0.741
				c-0.111-0.631-0.03-1.238,0.322-1.786c0.361-0.558,0.978-0.773,1.615-0.583c0.081,0.024,0.162,0.053,0.242,0.075
				c0.063,0.017,0.08,0.054,0.07,0.115c-0.03,0.187-0.057,0.377-0.085,0.566c-0.012,0.065-0.036,0.083-0.105,0.053
				c-0.113-0.049-0.229-0.087-0.346-0.12c-0.338-0.096-0.673,0.09-0.825,0.365c-0.208,0.376-0.273,0.774-0.146,1.191
				c0.094,0.303,0.384,0.466,0.694,0.394c0.118-0.029,0.232-0.076,0.349-0.115C132.151,10.384,132.176,10.377,132.233,10.356z"/>
			<path fill="#939393" d="M124.006,11.212c-0.18-0.02-0.359-0.037-0.536-0.056c-0.096-0.009-0.14-0.049-0.119-0.153
				c0.03-0.149,0.049-0.303,0.072-0.454c0.01-0.067,0.047-0.052,0.097-0.044c0.19,0.032,0.382,0.062,0.573,0.083
				c0.062,0.006,0.128-0.017,0.189-0.032c0.078-0.021,0.128-0.077,0.138-0.158c0.013-0.083-0.016-0.148-0.089-0.192
				c-0.106-0.06-0.216-0.114-0.322-0.176c-0.19-0.11-0.341-0.257-0.386-0.479c-0.105-0.513,0.093-0.998,0.692-1.105
				c0.274-0.048,0.543-0.012,0.814,0.009c0.071,0.007,0.104,0.035,0.092,0.11c-0.028,0.163-0.053,0.324-0.077,0.485
				c-0.008,0.067-0.054,0.063-0.105,0.059c-0.156-0.01-0.313-0.021-0.47-0.021c-0.053-0.002-0.106,0.016-0.155,0.041
				c-0.113,0.06-0.127,0.209-0.026,0.289c0.062,0.047,0.132,0.087,0.204,0.118c0.476,0.207,0.571,0.532,0.505,0.987
				c-0.066,0.456-0.387,0.626-0.781,0.671c-0.103,0.009-0.205,0.001-0.309,0.001C124.007,11.198,124.007,11.205,124.006,11.212z"/>
			<path fill="#939393" d="M126.264,8.481c0.097,0,0.182,0,0.266,0c0.045,0,0.081,0.007,0.072,0.069
				c-0.028,0.171-0.055,0.343-0.08,0.515c-0.01,0.067-0.038,0.097-0.114,0.097c-0.261,0-0.257,0.003-0.291,0.261
				c-0.036,0.277-0.081,0.554-0.132,0.827c-0.038,0.216,0.047,0.312,0.269,0.282c0.022-0.003,0.051-0.016,0.069-0.008
				c0.023,0.01,0.058,0.039,0.055,0.057c-0.02,0.158-0.043,0.317-0.072,0.475c-0.007,0.032-0.039,0.081-0.069,0.087
				c-0.19,0.054-0.38,0.111-0.582,0.063c-0.248-0.058-0.403-0.234-0.403-0.493c0-0.185,0.021-0.367,0.046-0.549
				c0.064-0.428,0.136-0.853,0.204-1.279c0.036-0.235,0.075-0.471,0.113-0.706c0.01-0.068,0.042-0.101,0.117-0.097
				c0.165,0.003,0.333,0.003,0.5,0c0.085-0.003,0.107,0.033,0.092,0.112C126.301,8.281,126.284,8.371,126.264,8.481z"/>
			<path fill="#939393" d="M129.77,8.768c0.06-0.066,0.113-0.134,0.178-0.195c0.096-0.091,0.21-0.134,0.346-0.124
				c0.055,0.005,0.081,0.019,0.058,0.083c-0.075,0.215-0.148,0.43-0.215,0.647c-0.021,0.06-0.044,0.092-0.112,0.088
				c-0.102-0.004-0.187,0.049-0.218,0.141c-0.07,0.206-0.141,0.413-0.184,0.624c-0.07,0.347-0.12,0.698-0.174,1.048
				c-0.009,0.063-0.036,0.087-0.101,0.087c-0.177-0.003-0.354-0.003-0.531,0c-0.072,0-0.094-0.023-0.082-0.098
				c0.08-0.502,0.157-1.003,0.236-1.503c0.047-0.317,0.099-0.633,0.146-0.95c0.014-0.103,0.056-0.145,0.164-0.137
				c0.139,0.01,0.28,0.005,0.419,0.002c0.068,0,0.092,0.023,0.078,0.092c-0.014,0.063-0.02,0.126-0.029,0.19
				C129.756,8.764,129.762,8.766,129.77,8.768z"/>
			<path fill="#939393" d="M135.572,8.759c0.062-0.063,0.118-0.128,0.181-0.189c0.096-0.092,0.212-0.129,0.347-0.121
				c0.062,0.005,0.071,0.032,0.053,0.087c-0.073,0.216-0.145,0.431-0.221,0.644c-0.014,0.034-0.056,0.082-0.084,0.082
				c-0.157,0-0.244,0.094-0.281,0.225c-0.073,0.259-0.135,0.52-0.187,0.782c-0.052,0.264-0.087,0.53-0.127,0.797
				c-0.01,0.074-0.043,0.102-0.12,0.101c-0.167-0.007-0.334-0.005-0.501,0c-0.074,0-0.105-0.019-0.091-0.101
				c0.06-0.365,0.114-0.734,0.172-1.099c0.051-0.334,0.103-0.667,0.154-0.999c0.021-0.141,0.042-0.282,0.072-0.422
				c0.005-0.025,0.046-0.06,0.072-0.06c0.166-0.007,0.333-0.002,0.501-0.004c0.06,0,0.077,0.028,0.067,0.083
				c-0.011,0.062-0.02,0.125-0.027,0.186C135.56,8.754,135.566,8.757,135.572,8.759z"/>
		</g>
	</g>
</g>
<g id="Calque_4">
	<g>
		<path fill="#767676" d="M184.942,9.007c-0.094,0-0.188-0.007-0.281,0.002C184.755,9,184.849,9.007,184.942,9.007
			c0.127,0,0.25-0.007,0.373,0.002C185.192,9,185.069,9.007,184.942,9.007z"/>
		<path fill="#767676" d="M149.374,9.011c0.232-0.009,0.465-0.004,0.697-0.004c0.309,0,0.313-0.01,0.354-0.324
			c0.045-0.339,0.1-0.673,0.152-1.009c0.125-0.785,0.246-1.572,0.379-2.356c0.023-0.138,0.006-0.291,0.109-0.416
			c0.004,0.442,0.053,0.88,0.063,1.319c0.014,0.841,0.031,1.682,0.043,2.524c0.002,0.191,0.066,0.282,0.27,0.266
			c0.152-0.014,0.305-0.009,0.457,0c0.125,0.007,0.186-0.052,0.223-0.161c0.338-1.002,0.676-2.004,1.014-3.006
			c0.109-0.327,0.225-0.652,0.336-0.979c0.072,0.244-0.012,0.474-0.045,0.706c-0.156,1.081-0.33,2.159-0.5,3.237
			c-0.021,0.138,0.018,0.205,0.17,0.2c0.252-0.006,0.508-0.002,0.762-0.002c0.344,0,0.35-0.015,0.4-0.356
			c0.166-1.101,0.336-2.202,0.508-3.303c0.119-0.758,0.242-1.515,0.367-2.271c0.027-0.171-0.01-0.249-0.209-0.244
			c-0.508,0.013-1.018,0.011-1.525,0.002c-0.148-0.004-0.225,0.05-0.268,0.19c-0.287,0.912-0.578,1.822-0.869,2.733
			c-0.066,0.208-0.139,0.412-0.219,0.646c-0.066-0.102-0.041-0.173-0.043-0.242c-0.02-1.036,0.027-2.075-0.037-3.112
			c-0.01-0.18-0.078-0.218-0.238-0.216c-0.451,0.007-0.9,0.011-1.352-0.002c-0.188-0.006-0.256,0.068-0.283,0.241
			c-0.125,0.822-0.256,1.643-0.387,2.463c-0.172,1.086-0.346,2.171-0.521,3.256C149.153,8.958,149.208,9.016,149.374,9.011z"/>
		<path fill="#767676" d="M186.329,2.836c-0.283,0-0.566,0.009-0.848-0.002c-0.188-0.008-0.254,0.066-0.277,0.246
			c-0.051,0.423-0.117,0.845-0.18,1.266c-0.018,0.123-0.072,0.13-0.158,0.051c-0.041-0.04-0.078-0.084-0.123-0.124
			c-0.414-0.391-0.9-0.467-1.424-0.279c-0.521,0.187-0.846,0.593-1.1,1.061c-0.264,0.479-0.406,0.995-0.447,1.531
			c-0.047,0.582-0.016,1.162,0.275,1.694c0.152,0.279,0.355,0.517,0.65,0.647c0.549,0.243,1.061,0.166,1.525-0.214
			c0.035-0.03,0.064-0.09,0.125-0.063c0.039,0.017,0.033,0.062,0.027,0.095c-0.051,0.247,0.088,0.282,0.285,0.264
			c0.094-0.009,0.188-0.002,0.281-0.002c0.127,0,0.25-0.007,0.373,0.002c0.172,0.014,0.262-0.038,0.287-0.23
			c0.061-0.488,0.143-0.974,0.219-1.459c0.219-1.435,0.436-2.869,0.664-4.305C186.507,2.864,186.452,2.835,186.329,2.836z
			 M184.505,7.132c-0.088,0.228-0.236,0.404-0.428,0.537c-0.412,0.288-0.896,0.037-0.959-0.491
			c-0.018-0.135-0.004-0.275-0.004-0.412c-0.029-0.447,0.063-0.867,0.311-1.241c0.291-0.436,0.793-0.494,1.08-0.138
			c0.121,0.154,0.154,0.344,0.17,0.53C184.71,6.333,184.653,6.74,184.505,7.132z"/>
		<path fill="#767676" d="M182.765,10.451c-0.285,0-0.568,0.02-0.85-0.016c-0.111-0.014-0.141,0.074-0.154,0.168
			c-0.059,0.438-0.117,0.875-0.18,1.309c-0.006,0.057,0.018,0.131-0.055,0.15c-0.064,0.021-0.1-0.045-0.141-0.084
			c-0.152-0.152-0.295-0.313-0.516-0.387c-0.561-0.197-1.18,0.014-1.586,0.549c-0.531,0.703-0.74,1.51-0.756,2.377
			c-0.002,0.246,0.002,0.492,0.053,0.734c0.08,0.357,0.205,0.697,0.441,0.982c0.434,0.516,1.182,0.564,1.777,0.115
			c0.045-0.031,0.078-0.109,0.145-0.074c0.061,0.031,0.031,0.107,0.027,0.158c-0.01,0.123,0.039,0.17,0.162,0.166
			c0.26-0.006,0.521-0.006,0.783,0c0.121,0.004,0.172-0.057,0.186-0.164c0.102-0.701,0.205-1.4,0.307-2.1
			c0.111-0.787,0.219-1.572,0.33-2.359c0.063-0.443,0.129-0.887,0.195-1.328C182.954,10.514,182.915,10.449,182.765,10.451z
			 M181.093,14.738c-0.154,0.416-0.434,0.648-0.758,0.646c-0.283-0.002-0.477-0.199-0.535-0.553
			c-0.078-0.482-0.023-0.951,0.135-1.408c0.051-0.143,0.117-0.279,0.227-0.393c0.178-0.188,0.371-0.326,0.648-0.238
			c0.275,0.084,0.377,0.314,0.414,0.561C181.298,13.824,181.259,14.289,181.093,14.738z"/>
		<path fill="#767676" d="M178.743,8.702c0.1-0.685,0.211-1.371,0.303-2.059c0.061-0.48,0.16-0.958,0.139-1.446
			c-0.021-0.632-0.439-1.146-1.045-1.273c-0.68-0.145-1.336-0.022-1.988,0.166c-0.102,0.029-0.137,0.085-0.15,0.184
			c-0.035,0.258-0.084,0.514-0.119,0.771c-0.037,0.243-0.029,0.251,0.213,0.18c0.484-0.145,0.973-0.212,1.477-0.131
			c0.316,0.052,0.467,0.277,0.375,0.579c-0.027,0.096-0.072,0.13-0.172,0.112c-0.273-0.049-0.545-0.03-0.82,0.007
			c-1.164,0.153-1.807,0.899-1.721,2.069c0.074,0.978,0.729,1.371,1.654,1.157c0.287-0.063,0.518-0.235,0.725-0.437
			c0.072,0.065,0.049,0.128,0.045,0.181c-0.025,0.189,0.053,0.265,0.244,0.249c0.166-0.014,0.334-0.004,0.502-0.004
			C178.702,9.007,178.7,9.007,178.743,8.702z M177.729,7.129c-0.051,0.195-0.123,0.385-0.248,0.551
			c-0.172,0.228-0.461,0.341-0.705,0.284c-0.211-0.049-0.289-0.205-0.32-0.393c-0.043-0.253,0.104-0.545,0.334-0.683
			c0.146-0.089,0.373-0.138,0.648-0.138C177.774,6.75,177.813,6.799,177.729,7.129z"/>
		<path fill="#767676" d="M157.218,5.756c-0.535-0.012-1.061,0.029-1.533,0.308c-0.779,0.454-0.953,1.221-0.824,2.053
			c0.035,0.219,0.143,0.404,0.277,0.583c0.379,0.502,1.258,0.439,1.699,0.166c0.127-0.079,0.244-0.172,0.4-0.282
			c0,0.088,0.008,0.14-0.002,0.188c-0.029,0.18,0.039,0.251,0.225,0.239c0.217-0.014,0.436-0.005,0.652-0.004
			c0.127,0,0.191-0.039,0.207-0.186c0.055-0.467,0.139-0.928,0.195-1.396c0.09-0.745,0.271-1.48,0.244-2.241
			c-0.023-0.661-0.422-1.137-1.066-1.264c-0.66-0.128-1.293-0.011-1.926,0.162c-0.135,0.038-0.166,0.127-0.184,0.235
			c-0.047,0.271-0.086,0.544-0.129,0.813c-0.018,0.109,0.012,0.149,0.129,0.115c0.299-0.09,0.604-0.153,0.914-0.177
			c0.291-0.022,0.58-0.038,0.854,0.087c0.178,0.081,0.248,0.307,0.178,0.528C157.468,5.881,157.325,5.759,157.218,5.756z
			 M157.354,6.821c-0.037,0.376-0.137,0.759-0.459,0.997c-0.281,0.207-0.637,0.188-0.775-0.043
			c-0.164-0.268-0.055-0.754,0.215-0.916c0.213-0.128,0.441-0.216,0.707-0.216c0.053,0,0.125,0,0.197,0
			C157.321,6.643,157.364,6.74,157.354,6.821z"/>
		<path fill="#767676" d="M167.097,6.926c-0.268,0-0.533,0.004-0.801,0.003C166.563,6.93,166.829,6.926,167.097,6.926
			c0.254,0,0.51-0.005,0.766-0.002C167.606,6.921,167.351,6.926,167.097,6.926z"/>
		<path fill="#767676" d="M164.646,7.44c0.1,0.677,0.43,1.208,1.082,1.464c0.717,0.282,1.451,0.2,2.18,0.015
			c0.096-0.023,0.135-0.108,0.15-0.194c0.053-0.291,0.105-0.583,0.145-0.876c0.031-0.227,0.004-0.238-0.209-0.157
			c-0.543,0.209-1.094,0.338-1.666,0.116c-0.303-0.116-0.479-0.393-0.477-0.71c0-0.136,0.049-0.176,0.18-0.174
			c0.088,0.001,0.178,0.003,0.266,0.006c0.268,0.001,0.533-0.003,0.801-0.003c0.256,0,0.51-0.005,0.766-0.002
			c0.086,0,0.172,0.005,0.256,0.006c0.148,0.005,0.225-0.033,0.258-0.187c0.105-0.498,0.158-1.004,0.078-1.506
			c-0.068-0.424-0.252-0.802-0.615-1.063c-0.814-0.588-1.992-0.365-2.594,0.491C164.657,5.505,164.501,6.442,164.646,7.44z
			 M166.806,5.018c0.334,0.029,0.605,0.43,0.512,0.752c-0.027,0.097-0.09,0.116-0.18,0.115c-0.166-0.004-0.332-0.002-0.498-0.002
			c-0.174,0-0.346-0.001-0.52,0c-0.084,0.002-0.137-0.017-0.135-0.12C165.995,5.389,166.437,4.986,166.806,5.018z"/>
		<path fill="#767676" d="M177.138,11.73c-0.969-0.412-2.049-0.002-2.541,0.932c-0.299,0.572-0.432,1.178-0.422,1.82
			c0.004,0.23,0.002,0.461,0.045,0.691c0.1,0.537,0.289,1.021,0.756,1.344c0.83,0.576,2.271,0.314,2.813-0.775
			c0.211-0.428,0.32-0.875,0.367-1.352c0.055-0.563,0.047-1.113-0.146-1.648C177.845,12.299,177.583,11.922,177.138,11.73z
			 M176.929,13.781c-0.004,0.596-0.059,1.082-0.354,1.506c-0.275,0.396-0.791,0.369-1.008-0.045
			c-0.32-0.617-0.121-1.789,0.383-2.271c0.285-0.271,0.664-0.205,0.846,0.145C176.921,13.357,176.937,13.615,176.929,13.781z"/>
		<path fill="#767676" d="M164.116,11.633c-0.26,0.01-0.523,0.016-0.781,0c-0.195-0.014-0.275,0.061-0.301,0.244
			c-0.102,0.736-0.207,1.471-0.32,2.207c-0.053,0.338-0.156,0.664-0.369,0.941c-0.156,0.203-0.443,0.299-0.656,0.223
			c-0.186-0.064-0.283-0.246-0.285-0.535c-0.002-0.453,0.107-0.889,0.162-1.334c0.063-0.523,0.154-1.043,0.23-1.564
			c0.018-0.117-0.029-0.18-0.154-0.178c-0.195,0-0.393-0.002-0.588,0c-0.672,0.004-0.488-0.084-0.594,0.559
			c-0.119,0.719-0.203,1.443-0.297,2.166c-0.07,0.535-0.072,1.066,0.109,1.584c0.135,0.383,0.365,0.697,0.783,0.768
			c0.518,0.09,0.932-0.133,1.258-0.531c0.057-0.07,0.092-0.162,0.215-0.188c-0.014,0.172-0.016,0.33-0.041,0.482
			c-0.02,0.104,0.014,0.131,0.105,0.131c0.299-0.002,0.596-0.002,0.893,0c0.082,0,0.137-0.021,0.146-0.119
			c0.023-0.252,0.051-0.504,0.084-0.754c0.125-0.893,0.252-1.785,0.379-2.68c0.061-0.414,0.127-0.828,0.189-1.24
			C164.306,11.682,164.253,11.631,164.116,11.633z"/>
		<path fill="#767676" d="M152.694,10.494c-0.623-0.221-1.26-0.256-1.893-0.086c-0.486,0.131-0.842,0.438-1.063,0.896
			c-0.123,0.262-0.186,0.537-0.211,0.816c-0.07,0.73,0.123,1.365,0.834,1.77c0.238,0.137,0.488,0.252,0.682,0.461
			c0.33,0.352,0.213,0.926-0.244,1.084c-0.496,0.174-0.973,0.08-1.42-0.172c-0.143-0.08-0.186-0.055-0.215,0.1
			c-0.059,0.311-0.123,0.621-0.197,0.932c-0.031,0.125-0.004,0.186,0.119,0.23c0.404,0.143,0.807,0.281,1.262,0.246
			c0.086,0,0.188,0.01,0.289,0c0.758-0.08,1.357-0.402,1.664-1.139c0.156-0.375,0.189-0.771,0.174-1.174
			c-0.027-0.627-0.271-1.131-0.834-1.457c-0.213-0.123-0.426-0.248-0.629-0.385c-0.213-0.146-0.275-0.371-0.23-0.615
			c0.045-0.234,0.207-0.363,0.439-0.393c0.383-0.047,0.764-0.063,1.123,0.129c0.225,0.119,0.236,0.111,0.297-0.141
			c0.064-0.275,0.115-0.555,0.191-0.824C152.878,10.619,152.839,10.545,152.694,10.494z"/>
		<path fill="#767676" d="M171.62,7.581c0.244,0.905,1.008,1.555,2.086,1.521c0.305,0.016,0.605-0.063,0.908-0.139
			c0.076-0.019,0.156-0.045,0.17-0.144c0.059-0.395,0.121-0.788,0.178-1.182c0.016-0.104-0.012-0.149-0.135-0.087
			c-0.199,0.103-0.412,0.173-0.633,0.225c-0.588,0.136-1.127-0.153-1.309-0.727c-0.262-0.83-0.125-1.624,0.326-2.35
			c0.314-0.505,0.797-0.719,1.4-0.607c0.236,0.041,0.465,0.114,0.676,0.228c0.125,0.067,0.18,0.04,0.201-0.105
			c0.047-0.344,0.105-0.687,0.162-1.03c0.016-0.098-0.014-0.152-0.111-0.2c-0.168-0.079-0.344-0.112-0.518-0.164
			c-1.049-0.311-2.104,0.008-2.746,0.893C171.425,4.884,171.251,6.201,171.62,7.581z"/>
		<path fill="#767676" d="M168.972,14.6c-0.279,0-0.559,0.006-0.84,0C168.413,14.605,168.692,14.6,168.972,14.6
			c0.324,0,0.65-0.002,0.979,0.002C169.622,14.598,169.296,14.6,168.972,14.6z"/>
		<path fill="#767676" d="M168.769,11.549c-0.799-0.018-1.324,0.412-1.682,1.07c-0.438,0.805-0.539,1.676-0.393,2.572
			c0.084,0.521,0.287,0.996,0.764,1.283c0.738,0.438,1.512,0.357,2.289,0.115c0.064-0.023,0.102-0.078,0.111-0.15
			c0.043-0.307,0.08-0.615,0.139-0.922c0.037-0.201-0.029-0.211-0.184-0.133c-0.381,0.195-0.785,0.244-1.203,0.217
			c-0.492-0.031-0.801-0.346-0.801-0.799c0-0.148,0.053-0.207,0.203-0.205c0.039,0.002,0.08,0.002,0.119,0.002
			c0.281,0.006,0.561,0,0.84,0c0.324,0,0.65-0.002,0.979,0.002c0.096,0.002,0.168-0.012,0.191-0.125
			c0.129-0.664,0.215-1.332-0.033-1.988C169.897,11.924,169.37,11.563,168.769,11.549z M169.153,13.533
			c-0.039,0.07-0.104,0.082-0.168,0.082c-0.16,0-0.32,0-0.48,0c-0.158,0-0.318,0-0.475,0c-0.078,0-0.127-0.029-0.121-0.123
			c0.016-0.377,0.416-0.77,0.781-0.758C169.028,12.744,169.308,13.23,169.153,13.533z"/>
		<path fill="#767676" d="M156.44,13.107c-0.053-0.496-0.201-0.955-0.627-1.262c-0.752-0.537-1.797-0.33-2.338,0.455
			c-0.617,0.898-0.76,1.896-0.578,2.949c0.088,0.506,0.301,0.951,0.77,1.23c0.729,0.43,1.486,0.34,2.248,0.117
			c0.076-0.021,0.119-0.08,0.131-0.158c0.045-0.301,0.094-0.6,0.133-0.902c0.008-0.061,0.066-0.133,0.004-0.182
			c-0.07-0.053-0.137,0.012-0.201,0.041c-0.455,0.205-0.924,0.283-1.416,0.16c-0.365-0.092-0.58-0.395-0.568-0.771
			c0.004-0.129,0.049-0.189,0.18-0.186c0.652,0.018,1.305-0.033,1.957,0.027c0.123,0.012,0.197-0.031,0.215-0.156
			c0.047-0.336,0.117-0.672,0.094-1.027C156.442,13.34,156.452,13.223,156.44,13.107z M155.021,13.615c-0.1,0-0.201,0-0.303,0
			c-0.16,0-0.318-0.012-0.477-0.012c-0.127-0.004-0.172-0.066-0.121-0.189c0.068-0.166,0.127-0.34,0.24-0.484
			c0.139-0.178,0.416-0.262,0.648-0.193c0.189,0.055,0.334,0.279,0.344,0.514C155.364,13.604,155.364,13.615,155.021,13.615z"/>
		<path fill="#767676" d="M185.173,14.6c-0.232,0-0.467,0.002-0.701,0C184.706,14.602,184.94,14.6,185.173,14.6
			c0.238,0,0.479-0.004,0.719-0.002C185.651,14.596,185.411,14.6,185.173,14.6z"/>
		<path fill="#767676" d="M185.653,11.736c-0.73-0.398-1.652-0.158-2.152,0.555c-0.641,0.914-0.773,1.934-0.58,3.006
			c0.086,0.477,0.301,0.9,0.729,1.164c0.74,0.455,1.523,0.365,2.309,0.129c0.055-0.018,0.096-0.068,0.105-0.131
			c0.047-0.32,0.094-0.643,0.137-0.965c0.021-0.154-0.041-0.18-0.172-0.111c-0.365,0.188-0.754,0.238-1.158,0.221
			c-0.504-0.023-0.762-0.254-0.859-0.748c-0.045-0.217,0.049-0.258,0.229-0.256c0.074,0,0.154,0,0.232,0
			c0.234,0.002,0.465,0,0.701,0c0.238,0,0.479-0.004,0.719-0.002c0.078,0.002,0.16,0.004,0.238,0.008
			c0.148,0.004,0.199-0.051,0.232-0.188c0.102-0.447,0.141-0.906,0.092-1.359C186.394,12.506,186.171,12.018,185.653,11.736z
			 M185.368,13.5c-0.023,0.066-0.068,0.09-0.133,0.09c-0.332,0.002-0.666,0.002-1,0.002c-0.064,0-0.111-0.014-0.119-0.094
			c-0.027-0.346,0.381-0.777,0.736-0.775C185.224,12.725,185.499,13.137,185.368,13.5z"/>
		<path fill="#767676" d="M173.786,15.229c-0.121,0.064-0.248,0.117-0.377,0.166c-0.58,0.219-1.111-0.008-1.365-0.572
			c-0.127-0.277-0.156-0.57-0.135-0.859c-0.023-0.445,0.068-0.861,0.219-1.266c0.232-0.635,0.742-1.008,1.338-0.977
			c0.279,0.016,0.535,0.121,0.779,0.252c0.111,0.059,0.174,0.051,0.191-0.088c0.027-0.223,0.063-0.445,0.088-0.668
			c0.061-0.549,0.059-0.549-0.488-0.723c-1.01-0.322-2.01,0.002-2.598,0.879c-0.814,1.213-0.93,2.551-0.592,3.936
			c0.119,0.484,0.404,0.893,0.852,1.166c0.635,0.391,1.295,0.336,1.967,0.131c0.08-0.025,0.107-0.078,0.119-0.16
			c0.053-0.371,0.113-0.742,0.168-1.113C173.978,15.172,173.917,15.158,173.786,15.229z"/>
		<path fill="#767676" d="M158.956,8.978c0.33,0.06,0.66,0.101,0.994,0.082c0.268-0.005,0.533,0.011,0.799-0.061
			c0.764-0.21,1.152-0.699,1.178-1.49c0.016-0.512-0.098-0.967-0.521-1.298c-0.199-0.158-0.436-0.258-0.66-0.377
			c-0.174-0.09-0.33-0.198-0.273-0.434c0.045-0.188,0.203-0.306,0.445-0.306c0.289,0,0.58-0.025,0.867,0.039
			c0.117,0.026,0.186-0.005,0.201-0.146c0.029-0.282,0.072-0.561,0.129-0.837c0.031-0.158-0.023-0.216-0.17-0.225
			c-0.383-0.02-0.762-0.079-1.146-0.053c-0.768,0.053-1.451,0.358-1.617,1.287c-0.115,0.632,0.012,1.245,0.621,1.636
			c0.184,0.116,0.375,0.22,0.566,0.321c0.189,0.102,0.35,0.224,0.297,0.47c-0.051,0.242-0.258,0.29-0.457,0.339
			c-0.041,0.01-0.088,0.003-0.131,0.006c-0.359,0.027-0.705-0.055-1.047-0.149c-0.127-0.034-0.186-0.029-0.201,0.12
			c-0.027,0.253-0.08,0.5-0.119,0.75C158.671,8.927,158.677,8.929,158.956,8.978z"/>
		<path fill="#767676" d="M159.663,11.703c-0.822-0.314-1.729-0.037-2.244,0.617c-0.498,0.635-0.705,1.352-0.672,2.146
			c0,0.152-0.014,0.307,0.002,0.457c0.063,0.611,0.275,1.164,0.775,1.549c0.551,0.422,1.164,0.352,1.775,0.137
			c0.1-0.033,0.139-0.111,0.148-0.219c0.027-0.279,0.063-0.559,0.1-0.838c0.01-0.076,0.07-0.168,0.008-0.227
			c-0.082-0.072-0.16,0.025-0.234,0.059c-0.641,0.275-1.211-0.049-1.316-0.732c-0.035-0.221-0.014-0.434,0.016-0.643
			c0.037-0.273,0.094-0.547,0.277-0.768c0.367-0.439,0.768-0.514,1.338-0.227c0.16,0.08,0.219,0.047,0.246-0.123
			c0.033-0.184,0.078-0.365,0.121-0.547C160.11,11.877,160.11,11.873,159.663,11.703z"/>
		<path fill="#767676" d="M163.519,3.229c0.119,0,0.238,0.001,0.357,0C163.757,3.23,163.638,3.229,163.519,3.229
			c-0.152,0-0.305,0.002-0.457-0.002C163.214,3.231,163.366,3.229,163.519,3.229z"/>
		<path fill="#767676" d="M162.673,8.984c0.449,0.215,0.904,0.105,1.35-0.041c0.057-0.02,0.076-0.083,0.086-0.144
			c0.041-0.284,0.088-0.571,0.129-0.856c0.023-0.173-0.09-0.143-0.195-0.124c-0.418,0.076-0.6-0.114-0.525-0.537
			c0.09-0.519,0.15-1.045,0.25-1.562c0.109-0.575-0.041-0.491,0.529-0.489c0.131,0,0.197-0.034,0.211-0.179
			c0.02-0.222,0.057-0.443,0.096-0.665c0.068-0.414,0.07-0.418-0.35-0.414c-0.152,0.003-0.258-0.006-0.189-0.206
			c0.039-0.115,0.053-0.24,0.078-0.359c0.025-0.118-0.018-0.182-0.145-0.179c-0.041,0-0.08,0-0.121,0c-0.119,0.001-0.238,0-0.357,0
			c-0.152,0-0.305,0.002-0.457-0.002c-0.123-0.001-0.191,0.053-0.209,0.175c-0.025,0.178-0.057,0.356-0.084,0.535
			c-0.141,0.899-0.281,1.797-0.422,2.696c-0.078,0.508-0.184,1.013-0.156,1.53C162.21,8.523,162.343,8.822,162.673,8.984z"/>
		<path fill="#767676" d="M170.94,5.441c0.131,0.007,0.168-0.057,0.197-0.173c0.084-0.345,0.164-0.689,0.313-1.016
			c0.041-0.092,0.16-0.215,0.078-0.291c-0.098-0.09-0.262-0.051-0.393-0.012c-0.08,0.026-0.152,0.079-0.229,0.122
			c-0.195,0.111-0.295,0.314-0.482,0.521c0.021-0.183,0.021-0.315,0.055-0.438c0.043-0.163-0.033-0.187-0.166-0.185
			c-0.262,0.003-0.523,0.01-0.783-0.002c-0.152-0.009-0.207,0.06-0.227,0.192c-0.074,0.472-0.15,0.942-0.223,1.412
			c-0.164,1.071-0.32,2.145-0.496,3.213c-0.027,0.171,0.006,0.228,0.176,0.223c0.295-0.006,0.594-0.007,0.891,0.002
			c0.145,0.004,0.207-0.047,0.227-0.192c0.076-0.521,0.156-1.041,0.246-1.563c0.09-0.525,0.164-1.059,0.406-1.545
			C170.614,5.543,170.741,5.43,170.94,5.441z"/>
		<path fill="#767676" d="M179.421,9.011c0.283-0.009,0.566-0.012,0.848,0c0.174,0.008,0.248-0.063,0.271-0.23
			c0.068-0.472,0.141-0.942,0.217-1.415c0.084-0.498,0.164-0.998,0.336-1.478c0.09-0.252,0.219-0.461,0.533-0.451
			c0.102,0.005,0.141-0.07,0.158-0.149c0.082-0.416,0.201-0.814,0.387-1.194c0.061-0.13,0.004-0.165-0.121-0.17
			c-0.234-0.013-0.428,0.069-0.588,0.231c-0.121,0.121-0.23,0.247-0.371,0.396c-0.016-0.158,0.02-0.273,0.043-0.39
			c0.031-0.124-0.014-0.192-0.154-0.19c-0.223,0.003-0.447,0.001-0.674,0.001c-0.338,0-0.326,0.001-0.377,0.346
			c-0.117,0.81-0.238,1.615-0.367,2.423c-0.104,0.687-0.215,1.37-0.322,2.057C179.216,8.941,179.259,9.015,179.421,9.011z"/>
		<path fill="#767676" d="M166.903,11.635c-0.084-0.088-0.221-0.053-0.33-0.023c-0.082,0.021-0.154,0.078-0.23,0.119
			c-0.211,0.107-0.283,0.34-0.482,0.484c0.021-0.127,0.047-0.252,0.07-0.379c0.023-0.133-0.021-0.205-0.172-0.201
			c-0.238,0.006-0.479,0.006-0.719,0c-0.125-0.004-0.182,0.043-0.199,0.17c-0.031,0.252-0.08,0.498-0.115,0.75
			c-0.113,0.785-0.221,1.572-0.332,2.357c-0.076,0.529-0.156,1.059-0.232,1.586c-0.016,0.1,0.023,0.15,0.131,0.15
			c0.303-0.004,0.609-0.004,0.914-0.002c0.105,0.002,0.152-0.045,0.166-0.152c0.053-0.432,0.111-0.861,0.176-1.289
			c0.078-0.529,0.15-1.059,0.307-1.572c0.078-0.252,0.178-0.51,0.488-0.551c0.15-0.018,0.188-0.086,0.211-0.217
			c0.063-0.334,0.158-0.66,0.281-0.979C166.868,11.805,166.983,11.719,166.903,11.635z"/>
	</g>
</g>
<g>
	<path fill="#767676" d="M210.309,6.09c-0.066-1.484-1.231-2.602-2.721-2.612c-1.611-0.008-3.225-0.012-4.832-0.02
		c-0.523-0.001-0.656,0.103-0.77,0.603c-0.719,3.09-1.405,6.183-2.128,9.273c-0.021,0.094,0.138,0.22-0.097,0.268
		c0,0.151,0,0.304,0,0.457c0.234,0.07,0.205,0.204,0.391,0.195c0.571-0.017,1.129-0.003,1.7-0.011
		c0.363-0.009,0.461-0.101,0.553-0.45c0.207-0.792,0.404-1.584,0.619-2.374c0.185-0.69,0.205-0.712,0.919-0.668
		c0.878,0.053,1.75,0.036,2.617-0.123C209.035,10.179,210.417,8.505,210.309,6.09z M206.861,8.125
		c-0.56,0.428-1.226,0.539-1.91,0.575c-0.045,0.002-0.093,0-0.14,0c0,0.007,0,0.013-0.002,0.02c-0.21-0.012-0.418-0.017-0.623-0.044
		c-0.297-0.038-0.411-0.167-0.373-0.463c0.104-0.83,0.32-1.637,0.562-2.438c0.063-0.209,0.246-0.311,0.46-0.333
		c0.53-0.052,1.063-0.038,1.582,0.121c0.526,0.162,0.916,0.472,1.013,1.044C207.531,7.217,207.366,7.742,206.861,8.125z"/>
	<path fill="#767676" d="M228.149,5.951c-0.648-0.031-1.291-0.057-1.943,0.008c-0.216,0.023-0.359,0.116-0.479,0.304
		c-0.59,0.955-1.19,1.906-1.785,2.859c-0.371,0.599-0.734,1.202-1.098,1.805c-0.04,0.07-0.071,0.165-0.176,0.159
		c-0.08-0.006-0.122-0.06-0.142-0.127c-0.018-0.063-0.033-0.126-0.042-0.193c-0.229-1.392-0.461-2.778-0.688-4.17
		c-0.074-0.454-0.288-0.658-0.747-0.658c-0.454,0-0.913,0.015-1.369,0.026c-0.434,0.017-0.616,0.238-0.54,0.672
		c0.257,1.459,0.517,2.923,0.782,4.382c0.198,1.075,0.399,2.151,0.625,3.226c0.051,0.24,0.045,0.442-0.085,0.648
		c-0.255,0.404-0.504,0.806-0.759,1.211c-0.252,0.404-0.521,0.8-0.754,1.215c-0.087,0.156-0.25,0.329,0.051,0.476
		c0.339,0.03,0.689,0.012,1.027,0.012c0.42,0,0.838,0,1.257,0c0.2,0,0.361-0.364,0.511-0.595c1.374-2.13,2.676-4.281,3.983-6.449
		c0.867-1.436,1.719-2.867,2.574-4.309C228.546,6.125,228.48,5.962,228.149,5.951z"/>
	<path fill="#767676" d="M219.002,17.794c0.006,0.003,0.013-0.011,0.011-0.004c-0.003,0.014-0.011,0.016-0.014,0.016
		c0.34,0,0.687,0,1.029,0C219.69,17.806,219.34,17.824,219.002,17.794z"/>
	<path fill="#767676" d="M235.2,3.481c-0.753-0.006-1.372,0-2.306,0c0-0.007,0-0.011,0-0.015c-0.465,0-1.556-0.006-2.354,0
		c-0.523,0.004-0.614,0.101-0.735,0.617c-0.648,2.793-1.283,5.585-1.932,8.378c-0.092,0.4-0.182,0.796-0.27,1.199
		c-0.087,0.421,0.052,0.587,0.479,0.587c0.534,0,1.07,0.003,1.604-0.009c0.355-0.003,0.467-0.098,0.559-0.445
		c0.216-0.831,0.427-1.661,0.649-2.49c0.147-0.54,0.205-0.585,0.758-0.556c0.916,0.049,1.827,0.049,2.736-0.117
		c2.223-0.401,3.436-1.652,3.728-3.808C238.381,4.899,237.144,3.491,235.2,3.481z M234.721,8.124
		c-0.589,0.451-1.287,0.545-1.997,0.589c-0.247,0.013-0.492,0.006-0.739-0.042c-0.23-0.037-0.366-0.175-0.334-0.415
		c0.109-0.854,0.325-1.685,0.578-2.504c0.057-0.193,0.24-0.292,0.443-0.312c0.173-0.02,0.344-0.022,0.461-0.027
		c0.417,0.005,0.776,0.034,1.128,0.141c0.538,0.17,0.929,0.483,1.023,1.075C235.379,7.23,235.21,7.745,234.721,8.124z"/>
	<path fill="#767676" d="M217.228,6.541c-0.357-0.25-0.745-0.417-1.175-0.499c-0.509-0.098-1.02-0.132-1.598-0.128
		c-0.825,0.017-1.704,0.097-2.579,0.276c-0.271,0.053-0.453,0.212-0.522,0.471c-0.098,0.378-0.153,0.766-0.15,1.158
		c0.001,0.288,0.186,0.409,0.456,0.307c1.038-0.372,2.114-0.466,3.207-0.372c0.724,0.065,0.995,0.534,0.757,1.229
		c-0.063,0.183-0.164,0.295-0.365,0.302c-0.355,0.009-0.704,0.024-1.06,0.04c-0.882,0.039-1.772-0.006-2.633,0.27
		c-0.873,0.282-1.581,0.747-1.935,1.636c-0.184,0.462-0.208,0.943-0.188,1.437c0.033,0.802,0.456,1.417,1.223,1.648
		c0.924,0.277,1.846,0.265,2.729-0.18c0.376-0.186,0.736-0.4,1.099-0.611c0.155-0.089,0.246-0.109,0.21,0.126
		c-0.02,0.128-0.023,0.264-0.03,0.396c-0.011,0.137,0.056,0.222,0.196,0.222c0.571,0,1.143,0.031,1.713-0.033
		c0.274-0.027,0.45-0.181,0.51-0.46c0.372-1.676,0.739-3.35,1.057-5.036C218.328,7.802,218.003,7.081,217.228,6.541z
		 M215.218,10.813c-0.035,0.424-0.116,0.831-0.315,1.21c-0.296,0.561-0.808,0.744-1.396,0.791c-0.104,0.007-0.21,0.008-0.313,0.017
		c-0.104,0-0.21,0.006-0.314-0.003c-0.527-0.036-0.807-0.235-0.92-0.655c-0.138-0.521,0.005-0.95,0.413-1.234
		c0.397-0.274,0.86-0.357,1.324-0.405c0.388-0.043,0.779-0.05,1.168-0.073C215.122,10.441,215.238,10.562,215.218,10.813z"/>
	<g>
		<path fill="#767676" d="M244.957,6.508c-0.36-0.244-0.757-0.398-1.185-0.474c-0.558-0.102-1.114-0.13-1.679-0.115
			c-0.822,0.033-1.638,0.108-2.44,0.274c-0.25,0.055-0.427,0.197-0.496,0.424c-0.119,0.397-0.168,0.805-0.168,1.213
			c-0.003,0.269,0.196,0.391,0.448,0.299c1.038-0.383,2.114-0.473,3.205-0.379c0.741,0.063,1.01,0.54,0.759,1.246
			c-0.065,0.186-0.173,0.289-0.369,0.293c-0.268,0.011-0.534,0.014-0.8,0.029c-0.892,0.053-1.792-0.009-2.671,0.219
			c-1.668,0.434-2.469,1.538-2.318,3.226c0.07,0.783,0.473,1.33,1.223,1.56c0.895,0.272,1.783,0.271,2.638-0.182
			c0.307-0.157,0.602-0.326,0.908-0.481c0.148-0.075,0.305-0.259,0.451-0.175c0.104,0.062-0.009,0.284,0.007,0.435
			c0,0.038,0,0.074-0.005,0.114c-0.019,0.157,0.055,0.234,0.21,0.234c0.562-0.004,1.125,0.026,1.687-0.033
			c0.273-0.027,0.447-0.177,0.512-0.46c0.373-1.674,0.735-3.351,1.057-5.036C246.111,7.77,245.759,7.046,244.957,6.508z
			 M242.688,12.133c-0.131,0.206-0.297,0.382-0.521,0.477c-0.565,0.246-1.16,0.29-1.764,0.17c-0.354-0.074-0.558-0.328-0.615-0.673
			c-0.083-0.45-0.005-0.859,0.397-1.147c0.428-0.304,0.834-0.384,1.338-0.439c0.188-0.022,0.477-0.023,0.477-0.034
			c0-0.01,0-0.018,0-0.026c0,0,0.475,0.004,0.664-0.003c0.219-0.006,0.417,0.107,0.407,0.315
			C243.04,11.25,242.948,11.717,242.688,12.133z"/>
	</g>
	<path fill="#767676" d="M250.654,3.539c-0.489-0.007-0.973-0.009-1.461-0.009c-0.474-0.001-0.609,0.103-0.718,0.555
		c-0.624,2.693-1.249,5.391-1.814,8.095c-0.111,0.532-0.209,1.066-0.301,1.604c-0.054,0.336,0.073,0.438,0.405,0.433
		c0.268-0.003,0.6,0,0.829,0c0,0.005,0,0.089,0,0.089c0.236,0,0.401,0,0.63,0c0.495,0,0.498-0.035,0.613-0.524
		c0.761-3.206,1.522-6.431,2.281-9.637C251.204,3.776,251.035,3.543,250.654,3.539z"/>
	<path fill="#767676" d="M254.072,4.69c-0.02-0.323-0.038-0.644-0.062-0.966c-0.008-0.09,0.022-0.2-0.129-0.209
		c-0.12-0.008-0.189,0.029-0.227,0.155c-0.079,0.247-0.175,0.486-0.286,0.787c-0.106-0.312-0.196-0.56-0.277-0.812
		c-0.034-0.113-0.108-0.131-0.216-0.131c-0.141,0.001-0.116,0.097-0.123,0.177c-0.024,0.333-0.045,0.665-0.072,0.996
		c-0.003,0.085-0.039,0.177,0.102,0.18c0.134,0.01,0.119-0.087,0.125-0.172c0.011-0.208,0.027-0.414,0.044-0.622
		c0.115,0.213,0.19,0.424,0.259,0.637c0.023,0.074,0.034,0.149,0.133,0.156c0.114,0.01,0.139-0.066,0.167-0.153
		c0.077-0.219,0.16-0.437,0.238-0.655c0.017,0.003,0.032,0.009,0.048,0.015c0.015,0.209,0.029,0.417,0.044,0.627
		c0.009,0.084-0.008,0.173,0.13,0.169C254.114,4.866,254.078,4.77,254.072,4.69z"/>
	<path fill="#767676" d="M252.403,3.517c-0.238,0-0.476,0-0.715,0c-0.074,0-0.172-0.016-0.163,0.099
		c0.006,0.089,0.097,0.084,0.157,0.072c0.213-0.033,0.27,0.065,0.245,0.257c-0.016,0.113-0.003,0.226-0.003,0.342
		c0,0.145,0.003,0.288-0.002,0.428c-0.003,0.088,0.005,0.151,0.114,0.151c0.105,0.003,0.123-0.05,0.121-0.141
		c-0.006-0.25,0.009-0.499-0.007-0.744c-0.011-0.207,0.02-0.337,0.266-0.294c0.067,0.013,0.147,0.005,0.143-0.091
		C252.552,3.5,252.468,3.517,252.403,3.517z"/>
	<path fill="#767676" d="M212.879,12.827c0.104,0.009,0.211,0.003,0.314,0.003c0.103-0.009,0.209-0.01,0.313-0.017
		c-0.104,0.007-0.21,0.008-0.313,0.014C213.09,12.83,212.983,12.836,212.879,12.827z"/>
</g>
</svg>
