<?xml version="1.0" encoding="utf-8"?>
<!-- Generator: Adobe Illustrator 16.0.3, SVG Export Plug-In . SVG Version: 6.00 Build 0)  -->
<!DOCTYPE svg PUBLIC "-//W3C//DTD SVG 1.1//EN" "http://www.w3.org/Graphics/SVG/1.1/DTD/svg11.dtd">
<svg version="1.1" id="Calque_1" xmlns="http://www.w3.org/2000/svg" xmlns:xlink="http://www.w3.org/1999/xlink" x="0px" y="0px"
	 width="150px" height="55px" viewBox="0 0 150 55" enable-background="new 0 0 150 55" xml:space="preserve">
<g>
	<g>
		<path fill-rule="evenodd" clip-rule="evenodd" fill="#FFFFFF" d="M24.781,47.314v-9.815c0-3.521-2.236-5.798-5.881-5.798
			c-3.23,0-5.509,1.656-7.207,3.893h-0.083V21.635H2.707v2.733h2.361c1.16,0,1.656,0.456,1.656,1.657v21.289
			c0,1.201-0.497,1.657-1.656,1.657H2.707v2.733h12.176v-2.733h-1.615c-1.16,0-1.657-0.456-1.657-1.657v-6.461
			c0-3.645,2.485-5.922,4.639-5.922c2.195,0,3.645,0.786,3.645,2.898v9.484c0,1.201-0.497,1.657-1.657,1.657h-1.574v2.733h12.094
			v-2.733h-2.319C25.278,48.972,24.781,48.516,24.781,47.314z M38.255,31.701c-5.715,0-9.608,4.266-9.608,10.313
			c0,6.709,3.396,10.313,9.816,10.313c5.508,0,8.366-2.775,8.904-7.497H43.93c-0.538,2.858-2.029,4.391-5.011,4.391
			c-3.852,0-4.846-3.479-4.722-6.709H47.45C47.906,37.789,45.048,31.701,38.255,31.701z M34.197,39.776
			c0.125-2.609,1.16-5.177,3.976-5.177c2.94,0,3.769,2.567,3.728,5.177H34.197z M67.548,46.072c0,2.567-0.497,3.147-1.118,3.147
			c-0.622,0-0.994-0.455-0.994-1.366V37.706c0-3.479-2.402-6.005-7.994-6.005c-3.271,0-8.324,0.91-8.324,5.135
			c0,1.698,1.201,3.065,2.982,3.065c1.615,0,2.899-0.58,2.899-2.443c0-1.698-1.201-2.361-2.733-2.154
			c0.746-0.994,2.692-1.366,3.852-1.366c2.195,0,4.432,0.497,4.432,3.147c0,5.839-12.425,1.946-12.425,9.981
			c0,3.728,2.526,5.26,5.757,5.26c2.609,0,5.26-0.746,6.792-3.065c0.332,2.195,2.112,3.065,4.183,3.065
			c3.479,0,5.343-1.947,5.343-6.585v-1.243h-2.65V46.072z M60.548,44.167c0,2.65-1.574,5.053-4.39,5.053
			c-1.698,0-2.485-0.869-2.485-2.609c0-1.946,1.284-2.609,2.485-3.147l4.39-1.988V44.167z M90.298,47.148V21.635h-9.195v2.733h2.609
			c1.284,0,1.698,0.58,1.698,1.822v9.072h-0.083c-0.952-1.532-3.23-3.562-6.502-3.562c-5.177,0-8.2,5.218-8.2,10.313
			c0,5.094,2.443,10.313,8.2,10.313c2.733,0,4.846-1.201,6.502-4.018h0.083v3.396h8.697v-2.733h-2.153
			C90.67,48.972,90.298,48.392,90.298,47.148z M80.44,49.096c-2.774,0-4.266-2.319-4.266-7.082s1.491-7.082,4.266-7.082
			s4.97,2.319,4.97,6.833C85.41,46.776,83.215,49.096,80.44,49.096z M100.692,29.713c1.615,0,2.981-1.325,2.981-2.982
			s-1.366-2.982-2.981-2.982s-2.982,1.326-2.982,2.982S99.077,29.713,100.692,29.713z M103.674,47.314V32.322h-8.448v2.733h1.905
			c1.159,0,1.656,0.455,1.656,1.656v10.603c0,1.201-0.497,1.657-1.656,1.657h-1.905v2.733h12.135v-2.733h-2.029
			C104.171,48.972,103.674,48.516,103.674,47.314z M119.667,38.741c0,1.739,1.781,2.485,3.23,2.485c1.781,0,2.982-1.615,2.982-3.438
			c0-3.479-3.728-6.088-8.532-6.088c-5.384,0-10.229,4.141-10.229,10.271c0,6.668,3.354,10.354,9.732,10.354
			c5.633,0,8.532-3.023,8.905-8.573h-3.23c-0.29,2.982-2.03,5.095-4.515,5.095c-4.308,0-5.343-4.06-5.343-7.207
			s1.201-7.206,5.509-7.206c1.614,0,3.022,0.414,3.934,1.615C120.454,36.174,119.667,37.085,119.667,38.741z M136.775,42.593v3.687
			c0,1.656-0.497,2.36-1.781,2.36c-1.118,0-1.573-0.538-1.573-1.367V32.444h5.343v-2.732h-5.467v-7.704h-2.568
			c-0.373,3.811-1.449,7.538-5.674,7.828v2.608h3.479v15.284c0,3.313,2.195,4.598,5.302,4.598c3.271,0,5.674-1.905,5.674-6.254
			v-3.479H136.775z"/>
	</g>
</g>
<linearGradient id="SVGID_1_" gradientUnits="userSpaceOnUse" x1="145.4297" y1="46" x2="145.4297" y2="52.1692">
	<stop  offset="0" style="stop-color:#FF8E64"/>
	<stop  offset="1" style="stop-color:#FF3928"/>
</linearGradient>
<path fill="url(#SVGID_1_)" d="M143.284,51.128c0.586,0.585,1.301,0.878,2.146,0.878c0.871,0,1.593-0.293,2.165-0.878
	c0.571-0.586,0.857-1.301,0.857-2.146c0-0.871-0.286-1.593-0.857-2.165c-0.572-0.572-1.294-0.858-2.165-0.858
	c-0.845,0-1.56,0.286-2.146,0.858s-0.878,1.294-0.878,2.165C142.406,49.827,142.698,50.542,143.284,51.128z"/>
<linearGradient id="SVGID_2_" gradientUnits="userSpaceOnUse" x1="47.6558" y1="3.9858" x2="47.6558" y2="29.5806">
	<stop  offset="0" style="stop-color:#FF8E64"/>
	<stop  offset="1" style="stop-color:#FF3928"/>
</linearGradient>
<path fill-rule="evenodd" clip-rule="evenodd" fill="url(#SVGID_2_)" d="M65.131,27.945c0,0.734-0.487,1.336-1.15,1.551
	l-0.009,0.135c0,0-0.896,0.021-2.133,0.044c0-0.005,0.002-0.009,0.002-0.014c-2.538-0.092-6.834-0.568-11.793-2.457
	c-5.625-2.144-7.923-4.121-8.698-4.938c1.03,0.672,3.783,2.13,9.906,3.544c4.097,0.946,7.77,1.107,10.521,1.016
	c-0.81-7.582-6.545-12.837-14.105-12.837c-7.862,0-13.745,5.685-14.172,13.758h-0.056c0.009,0.07,0.042,0.132,0.042,0.205
	c0,0.91-0.737,1.646-1.646,1.646s-1.646-0.736-1.646-1.646c0-0.073,0.032-0.135,0.042-0.205h-0.056
	c0-8.453,6.002-15.501,13.978-17.12c-0.514-0.743-0.819-1.641-0.819-2.612c0-2.54,2.059-4.599,4.599-4.599s4.599,2.059,4.599,4.599
	c0,1.027-0.348,1.965-0.917,2.731c7.734,1.799,13.503,8.719,13.503,17.001h-0.033C65.099,27.815,65.131,27.875,65.131,27.945z
	 M41.35,22.266"/>
</svg>
